<svg width="24" height="23" viewBox="0 0 24 23" fill="none" xmlns="http://www.w3.org/2000/svg">
<path d="M2.5 11.5C2.5 7.02166 2.5 4.78249 3.89124 3.39124C5.28249 2 7.52166 2 12 2C16.4783 2 18.7175 2 20.1088 3.39124C21.5 4.78249 21.5 7.02166 21.5 11.5C21.5 15.9783 21.5 18.2175 20.1088 19.6088C18.7175 21 16.4783 21 12 21C7.52166 21 5.28249 21 3.89124 19.6088C2.5 18.2175 2.5 15.9783 2.5 11.5Z" stroke="#313131" stroke-width="1.5" stroke-linejoin="round"/>
<path d="M16.5 11.5C16.5 13.9853 14.4853 16 12 16C9.51472 16 7.5 13.9853 7.5 11.5C7.5 9.01472 9.51472 7 12 7C14.4853 7 16.5 9.01472 16.5 11.5Z" stroke="#313131" stroke-width="1.5"/>
<path d="M17.5078 6L17.4988 6" stroke="#313131" stroke-width="2" stroke-linecap="round" stroke-linejoin="round"/>
</svg>
