<svg width="25" height="24" viewBox="0 0 25 24" fill="none" xmlns="http://www.w3.org/2000/svg">
<path d="M5 9.5H4.5C3.55719 9.5 3.08579 9.5 2.79289 9.79289C2.5 10.0858 2.5 10.5572 2.5 11.5V20C2.5 20.9428 2.5 21.4142 2.79289 21.7071C3.08579 22 3.55719 22 4.5 22H5C5.94281 22 6.41421 22 6.70711 21.7071C7 21.4142 7 20.9428 7 20V11.5C7 10.5572 7 10.0858 6.70711 9.79289C6.41421 9.5 5.94281 9.5 5 9.5Z" stroke="#313131" stroke-width="1.5"/>
<path d="M7 4.25C7 5.49264 5.99264 6.5 4.75 6.5C3.50736 6.5 2.5 5.49264 2.5 4.25C2.5 3.00736 3.50736 2 4.75 2C5.99264 2 7 3.00736 7 4.25Z" stroke="#313131" stroke-width="1.5"/>
<path d="M12.826 9.5H12C11.0572 9.5 10.5858 9.5 10.2929 9.79289C10 10.0858 10 10.5572 10 11.5V20C10 20.9428 10 21.4142 10.2929 21.7071C10.5858 22 11.0572 22 12 22H12.5C13.4428 22 13.9142 22 14.2071 21.7071C14.5 21.4142 14.5 20.9428 14.5 20L14.5001 16.5001C14.5001 14.8433 15.0281 13.5001 16.5879 13.5001C17.3677 13.5001 18 14.1717 18 15.0001V19.5001C18 20.4429 18 20.9143 18.2929 21.2072C18.5857 21.5001 19.0572 21.5001 20 21.5001H20.4987C21.4413 21.5001 21.9126 21.5001 22.2055 21.2073C22.4984 20.9145 22.4985 20.4432 22.4987 19.5006L22.5001 14.0002C22.5001 11.515 20.1364 9.50024 17.7968 9.50024C16.4649 9.50024 15.2767 10.1531 14.5001 11.174C14.5 10.5439 14.5 10.2289 14.3632 9.995C14.2765 9.84686 14.1531 9.72353 14.005 9.63687C13.7711 9.5 13.4561 9.5 12.826 9.5Z" stroke="#313131" stroke-width="1.5" stroke-linejoin="round"/>
</svg>
