<svg width="25" height="24" viewBox="0 0 25 24" fill="none" xmlns="http://www.w3.org/2000/svg">
<path d="M12.5 20.5C14.3097 20.5 16.0451 20.3212 17.6534 19.9934C19.6623 19.5839 20.6668 19.3791 21.5834 18.2006C22.5 17.0221 22.5 15.6693 22.5 12.9635V11.0365C22.5 8.33073 22.5 6.97787 21.5834 5.79937C20.6668 4.62088 19.6623 4.41613 17.6534 4.00662C16.0451 3.67877 14.3097 3.5 12.5 3.5C10.6903 3.5 8.95489 3.67877 7.34656 4.00662C5.33766 4.41613 4.33321 4.62088 3.4166 5.79937C2.5 6.97787 2.5 8.33073 2.5 11.0365V12.9635C2.5 15.6693 2.5 17.0221 3.4166 18.2006C4.33321 19.3791 5.33766 19.5839 7.34656 19.9934C8.95489 20.3212 10.6903 20.5 12.5 20.5Z" stroke="#313131" stroke-width="1.5"/>
<path d="M16.4621 12.3129C16.3137 12.9187 15.5241 13.3538 13.9449 14.2241C12.2272 15.1705 11.3684 15.6438 10.6728 15.4615C10.4372 15.3997 10.2202 15.2911 10.038 15.1438C9.5 14.7089 9.5 13.8059 9.5 12C9.5 10.1941 9.5 9.29112 10.038 8.85618C10.2202 8.70886 10.4372 8.60029 10.6728 8.53854C11.3684 8.35621 12.2272 8.82945 13.9449 9.77593C15.5241 10.6462 16.3137 11.0813 16.4621 11.6871C16.5126 11.8933 16.5126 12.1067 16.4621 12.3129Z" stroke="#313131" stroke-width="1.5" stroke-linejoin="round"/>
</svg>
